<?xml version="1.0" encoding="utf-8"?>
<svg version="1.1" id="Layer_1"
xmlns="http://www.w3.org/2000/svg"
xmlns:xlink="http://www.w3.org/1999/xlink"
width="324px" height="175px"
xml:space="preserve">
<g id="PathID_61" transform="matrix(1.06193, 0, 0, 0.923884, 89.65, 141.3)" opacity="1">
<path style="fill:#868E85;fill-opacity:1" d="M11.9 -28.4L11.9 -23Q11.9 -20.7 12.2 -20.1Q12.55 -19.5 13.85 -19.5L14.6 -19.5L15.7 -19.55L17.85 -19.55Q20.35 -19.55 21.7 -22.25L22.3 -23.5Q22.5 -23.95 23.05 -24Q23.6 -24 23.6 -23.3L23.5 -22.2L23.45 -21.1L23.65 -17.3Q23.85 -15.35 23.85 -13.9L23.85 -12.65Q23.85 -12.3 23.75 -12.15Q23.65 -12 23.35 -12Q22.75 -11.95 22.6 -12.95Q22.25 -15.05 21.05 -16.15Q20.4 -16.75 19.45 -16.95Q18.55 -17.15 15.95 -17.15L14.25 -17.15Q13.05 -17.15 12.6 -16.75Q12.2 -16.4 12.05 -15.3Q11.9 -14.05 11.9 -11.35L11.9 -9.1Q11.9 -5.6 12.45 -4.05Q12.85 -2.9 13.4 -2.5Q14 -2.15 15.2 -2.15Q25.35 -2.15 28.5 -8.3Q28.65 -8.6 28.8 -8.65Q29.05 -8.7 29.25 -8.45Q29.5 -8.25 29.5 -7.9Q29.5 -5.45 28.15 -3.15Q27.05 -1.15 25.4 -0.3Q23.75 0.5 21 0.5Q19.4 0.5 17.45 0.3L14.55 0.05Q12.95 -0.15 10.2 -0.15Q8.4 -0.15 4.65 0.1L3.2 0.15Q2.6 0.15 2.55 -0.4Q2.5 -0.85 3.1 -1.1Q4.5 -1.6 5 -2.2Q5.55 -2.85 5.85 -4.4Q6.15 -5.75 6.15 -8L6.15 -27.8Q6.15 -30.6 5.2 -31.6Q4.3 -32.6 1.4 -33Q0.75 -33.1 0.75 -33.75Q0.75 -34.35 1.55 -34.35L2.3 -34.25L3.55 -34.25L6.05 -34.15L15.55 -34.05Q23.75 -34.05 25.65 -34.25L26 -34.3Q26.75 -34.3 26.75 -33.45L26.9 -31.4Q27.1 -29.25 27.1 -28.3Q27.1 -26.4 26.1 -26.35Q25.65 -26.3 25.65 -27.45Q25.65 -29.9 23.8 -31Q22 -32.15 17.95 -32.15L14.9 -32.15L13.2 -31.95Q11.9 -31.55 11.9 -29.4L11.9 -28.4" />
</g>
<g id="PathID_62" transform="matrix(1.06193, 0, 0, 0.923884, 89.65, 141.3)" opacity="1">
</g>
<g id="PathID_63" transform="matrix(1.06193, 0, 0, 0.923884, 121.6, 141.3)" opacity="1">
<path style="fill:#868E85;fill-opacity:1" d="M6.15 -27.55Q6.15 -29.95 4.8 -31.25Q3.5 -32.55 1.05 -32.55Q0.3 -32.55 0.3 -33.2Q0.3 -33.65 0.6 -33.8Q0.95 -33.95 2.05 -33.95L5.85 -33.9L8.15 -33.95L12.5 -34.3Q16.2 -34.65 18.35 -34.65Q26.85 -34.65 31.95 -30.3Q37.1 -25.95 37.1 -18.75Q37.1 -9.5 30.2 -4Q25.15 0 18.8 0L14.6 -0.2Q12.8 -0.3 10.9 -0.3Q6.45 -0.3 4.95 0Q3.8 0.2 3.4 0.2Q2.85 0.2 2.85 -0.55Q2.85 -1.05 3.45 -1.2Q5 -1.45 5.55 -2.4Q6.15 -3.4 6.15 -5.8L6.15 -27.55M11.9 -28.85L11.9 -7L12.15 -4.7Q13 -1.85 18.35 -1.85Q24.15 -1.85 27.55 -5.8Q30.95 -9.8 30.95 -16.65Q30.95 -23.75 26.85 -28.25Q22.75 -32.75 16.3 -32.75Q13.65 -32.75 12.65 -32.05Q11.9 -31.5 11.9 -28.85" />
</g>
<g id="PathID_64" transform="matrix(1.06193, 0, 0, 0.923884, 121.6, 141.3)" opacity="1">
</g>
<g id="PathID_65" transform="matrix(1.06193, 0, 0, 0.923884, 162.8, 141.3)" opacity="1">
<path style="fill:#868E85;fill-opacity:1" d="M11.4 -34.85Q13.75 -34.85 16 -33.95L17.65 -33.25Q18.8 -32.8 19.25 -32.8Q19.6 -32.8 20 -32.95L20.95 -33.45L21.35 -33.55Q21.9 -33.55 21.9 -32.7L21.85 -30.7L21.9 -29.8L22.2 -27.35L22.45 -25.05L22.55 -24.55Q22.55 -23.5 21.9 -23.5Q21.45 -23.5 21.25 -24.4Q20.5 -27.9 17.55 -30.45Q14.65 -33 11.35 -33Q9.1 -33 7.4 -31.45Q5.75 -29.95 5.75 -27.9Q5.75 -25.95 7.2 -24.55Q8.15 -23.65 13.15 -21.65Q19.1 -19.2 21.05 -16.9Q23.35 -14.05 23.35 -10.1Q23.35 -5.75 20.15 -2.5Q17 0.7 12.8 0.7Q11.05 0.7 7.3 -0.5Q5.55 -1.05 4.75 -1.2Q3.6 -1.45 3.4 -1.65Q3.2 -1.85 3.1 -2.95Q2.95 -4.1 2.35 -6.35Q1.4 -9.75 1.4 -10.7Q1.4 -11.9 2.15 -11.9Q2.5 -11.9 2.7 -11.3Q3.9 -7 6.9 -4.1Q9.95 -1.2 13.2 -1.2Q15.75 -1.2 17.75 -3.1Q19.75 -5.05 19.75 -7.55Q19.75 -9.5 18.7 -10.75Q17.65 -12.05 15.1 -13.15L11.3 -14.85Q5.9 -17.25 3.95 -19.4Q2.05 -21.55 2.05 -25.1Q2.05 -29.25 4.7 -32.05Q7.4 -34.85 11.4 -34.85" />
</g>
<g id="PathID_66" transform="matrix(1.06193, 0, 0, 0.923884, 162.8, 141.3)" opacity="1">
</g>
<g id="PathID_67" transform="matrix(1.06193, 0, 0, 0.923884, 188.45, 141.3)" opacity="1">
<path style="fill:#868E85;fill-opacity:1" d="M19.15 -31.4L30.55 -5.3Q31.4 -3.3 32.55 -2.3Q33.7 -1.35 35.5 -1.05Q36 -0.95 36 -0.3Q36 0.4 35.4 0.35Q35.05 0.35 34.45 0.2Q32.5 -0.25 28.2 -0.25Q23.9 -0.25 22.35 0.15L21.7 0.25Q21 0.25 21 -0.45Q21 -0.8 21.55 -1Q22.75 -1.35 23.55 -2.25Q24.35 -3.15 24.35 -4.15Q24.35 -5.55 22.15 -10.3Q21.5 -11.75 20.7 -11.95Q19.9 -12.2 14.95 -12.2L11.55 -12.2L9.35 -11.8Q8.4 -11.35 7.25 -8.5L6.45 -6.55Q6.15 -5.75 6.15 -4.9Q6.15 -1.75 10.55 -1.25Q11.5 -1.1 11.5 -0.5Q11.4 0.15 10.55 0.15L9.3 0.05Q7.6 -0.3 6.3 -0.3Q5.1 -0.3 2.5 -0.05L0.05 0.15Q-0.65 0.15 -0.65 -0.45Q-0.65 -0.95 0.05 -1.25Q1.4 -1.65 2.2 -2.75Q3.05 -3.9 4.65 -7.55L11.45 -23.3L12.6 -25.85L14.95 -30.65L16.15 -33L16.15 -32.9L16.55 -33.85Q16.95 -34.85 17.2 -34.85Q17.6 -34.85 18.6 -32.75L19.15 -31.4M20.1 -15.8L16.85 -23.4Q15.7 -26.15 15.2 -26.15Q14.9 -26.15 14.1 -24.35L13.6 -23.35L10.7 -16.7L10.45 -16.05Q10.25 -15.7 10.25 -15.4Q10.25 -14.6 12.05 -14.6L19.4 -14.6Q20.35 -14.6 20.35 -15.1L20.25 -15.5L20.1 -15.8" />
</g>
<g id="PathID_68" transform="matrix(1.06193, 0, 0, 0.923884, 188.45, 141.3)" opacity="1">
</g>
<g id="PathID_69" transform="matrix(1.77928, 0, 0, 1.77928, 70.6, 160.5)" opacity="1">
<path style="fill:#868E85;fill-opacity:1" d="M11.5 -0.25L-12.6 1.85Q-4.55 -0.5 6.65 -1.5L11.6 -1.85Q13.65 -0.9 11.5 -0.25" />
</g>
<g id="PathID_70" transform="matrix(1.77928, 0, 0, 1.77928, 70.6, 160.5)" opacity="1">
</g>
<g id="PathID_71" transform="matrix(1.77928, 0, 0, 1.77928, 243.55, 162.7)" opacity="1">
<path style="fill:#868E85;fill-opacity:1" d="M-11.6 -1.85L-6.65 -1.5Q4.55 -0.5 12.6 1.85L-11.5 -0.25Q-13.65 -0.9 -11.6 -1.85" />
</g>
<g id="PathID_72" transform="matrix(1.77928, 0, 0, 1.77928, 243.55, 162.7)" opacity="1">
</g>
<g id="PathID_73" transform="matrix(1.84422, 0, 0, 1.84422, 158.85, 51.75)" opacity="1">
<path style="fill:#64575E;fill-opacity:1" d="M47.45 9.75Q47.6 18.35 43.15 25.65L40.85 25.65Q45.55 18.45 45.4 9.8Q45.15 -4.5 31.75 -14.4Q18.25 -24.25 -0.55 -23.9Q-19.35 -23.6 -32.5 -13.25Q-45.55 -2.9 -45.3 11.4Q-45.15 18.85 -41.45 25.05L-43.75 25.1Q-47.25 18.85 -47.4 11.4Q-47.65 -3.65 -33.95 -14.45L-33.95 -14.5Q-20.15 -25.25 -0.55 -25.6Q19.05 -25.95 33.05 -15.6Q47.25 -5.3 47.45 9.75" />
</g>
<g id="PathID_74" transform="matrix(1.84422, 0, 0, 1.84422, 158.85, 51.75)" opacity="1">
</g>
<g id="PathID_75" transform="matrix(1.84422, 0, 0, 1.84422, 117.1, 45.45)" opacity="1">
<radialGradient
id="RadialGradID_15" gradientUnits="userSpaceOnUse" gradientTransform="matrix(0.119141, 0, 0, 0.119141, 30.8, 10.45)" spreadMethod ="pad" cx="0" cy="0" r="819.2" fx="0" fy="0" >
<stop  offset="0"  style="stop-color:#387E25;stop-opacity:1" />
<stop  offset="0.988235"  style="stop-color:#53BE38;stop-opacity:1" />
</radialGradient>
<path style="fill:url(#RadialGradID_15) " d="M-0.1 -23.05L5.7 -9.95Q8.4 -3.7 9 0Q10.45 8.9 0.7 18.05L0.7 23.4L-0.8 23.45L-0.8 18.05Q-10.4 9.05 -9.05 0.2Q-8.5 -3.5 -5.85 -9.8Q-2.25 -17.85 -0.1 -23.05" />
</g>
<g id="PathID_76" transform="matrix(1.84422, 0, 0, 1.84422, 117.1, 45.45)" opacity="1">
</g>
<g id="PathID_77" transform="matrix(1.84422, 0, 0, 1.84422, 179.2, 49.55)" opacity="1">
<path style="fill:#6B7063;fill-opacity:1" d="M-5.8 -12.6L-5.8 3.45L12.5 3.45L20.4 11.45L20.4 24.6L-0.55 22.85L-20.35 21.5L-20.35 -12.6L-13.4 -22.75L-5.8 -12.6" />
</g>
<g id="PathID_78" transform="matrix(1.84422, 0, 0, 1.84422, 179.2, 49.55)" opacity="1">
</g>
<g id="PathID_79" transform="matrix(1.84422, 0, 0, 1.84422, 162.4, 100.75)" opacity="1">
<radialGradient
id="RadialGradID_16" gradientUnits="userSpaceOnUse" gradientTransform="matrix(0.119141, 0, 0, 0.119141, 6.25, -19.5)" spreadMethod ="pad" cx="0" cy="0" r="819.2" fx="0" fy="0" >
<stop  offset="0"  style="stop-color:#358C1E;stop-opacity:1" />
<stop  offset="0.972549"  style="stop-color:#53BE38;stop-opacity:1" />
</radialGradient>
<path style="fill:url(#RadialGradID_16) " d="M43.95 -2.2Q73.9 2.15 87.65 7.15Q28.65 -4.8 -37.05 0Q-56.85 1.45 -75.15 4.3L-87.55 6.35Q-75.05 2.35 -61.5 -0.8Q-41.3 -5.45 -23.75 -6.95Q-21.45 -7.3 -7.65 -6.85Q6.95 -6.4 8.6 -6.5L43.95 -2.2" />
</g>
<g id="PathID_80" transform="matrix(1.84422, 0, 0, 1.84422, 162.4, 100.75)" opacity="1">
</g>
<g id="PathID_81" transform="matrix(0.467218, 0, 0, 0.390625, 127.95, 166.65)" opacity="1">
<linearGradient
id="LinearGradID_17" gradientUnits="userSpaceOnUse" gradientTransform="matrix(-3.2886e-009, 0.0752344, -0.0214063, -9.35697e-010, 63.85, -18.15)" spreadMethod ="pad" x1="-819.2" y1="0" x2="819.2" y2="0" >
<stop  offset="0" style="stop-color:#3C3C3C;stop-opacity:0" />
<stop  offset="1" style="stop-color:#000000;stop-opacity:1" />
</linearGradient>
<path style="fill:url(#LinearGradID_17) " d="M23.4 -31.4L7 -31.4L7 -20.2L19.4 -20.2L19.4 -16.4L7 -16.4L7 -1L2.4 -1L2.4 -35.2L23.4 -35.2L23.4 -31.4" />
</g>
<g id="PathID_82" transform="matrix(0.467218, 0, 0, 0.390625, 127.95, 166.65)" opacity="1">
</g>
<g id="PathID_83" transform="matrix(0.467218, 0, 0, 0.390625, 139.95, 166.65)" opacity="1">
<linearGradient
id="LinearGradID_18" gradientUnits="userSpaceOnUse" gradientTransform="matrix(-3.2886e-009, 0.0752344, -0.0214063, -9.35697e-010, 38.25, -18.15)" spreadMethod ="pad" x1="-819.2" y1="0" x2="819.2" y2="0" >
<stop  offset="0" style="stop-color:#3C3C3C;stop-opacity:0" />
<stop  offset="1" style="stop-color:#000000;stop-opacity:1" />
</linearGradient>
<path style="fill:url(#LinearGradID_18) " d="M23.2 -1L2.8 -1L2.8 -35.2L22.2 -35.2L22.2 -31.4L7.4 -31.4L7.4 -20.8L21 -20.8L21 -17L7.4 -17L7.4 -4.8L23.2 -4.8L23.2 -1" />
</g>
<g id="PathID_84" transform="matrix(0.467218, 0, 0, 0.390625, 139.95, 166.65)" opacity="1">
</g>
<g id="PathID_85" transform="matrix(0.467218, 0, 0, 0.390625, 151.9, 166.65)" opacity="1">
<linearGradient
id="LinearGradID_19" gradientUnits="userSpaceOnUse" gradientTransform="matrix(-3.2886e-009, 0.0752344, -0.0214063, -9.35697e-010, 12.65, -18.15)" spreadMethod ="pad" x1="-819.2" y1="0" x2="819.2" y2="0" >
<stop  offset="0" style="stop-color:#3C3C3C;stop-opacity:0" />
<stop  offset="1" style="stop-color:#000000;stop-opacity:1" />
</linearGradient>
<path style="fill:url(#LinearGradID_19) " d="M23.2 -1L2.8 -1L2.8 -35.2L22.2 -35.2L22.2 -31.4L7.4 -31.4L7.4 -20.8L21 -20.8L21 -17L7.4 -17L7.4 -4.8L23.2 -4.8L23.2 -1" />
</g>
<g id="PathID_86" transform="matrix(0.467218, 0, 0, 0.390625, 151.9, 166.65)" opacity="1">
</g>
<g id="PathID_87" transform="matrix(0.467218, 0, 0, 0.390625, 163.85, 166.65)" opacity="1">
<linearGradient
id="LinearGradID_20" gradientUnits="userSpaceOnUse" gradientTransform="matrix(-3.2886e-009, 0.0752344, -0.0214063, -9.35697e-010, -12.9, -18.15)" spreadMethod ="pad" x1="-819.2" y1="0" x2="819.2" y2="0" >
<stop  offset="0" style="stop-color:#3C3C3C;stop-opacity:0" />
<stop  offset="1" style="stop-color:#000000;stop-opacity:1" />
</linearGradient>
<path style="fill:url(#LinearGradID_20) " d="M23.4 -18Q23.4 -8.8 19.5 -4.9Q15.6 -1 9 -1L2.2 -1L2.2 -35.2L9 -35.2Q16.4 -35.2 19.9 -31.2Q23.4 -27.2 23.4 -18M18.6 -18Q18.6 -25.4 16.2 -28.4Q13.8 -31.4 9 -31.4L6.8 -31.4L6.8 -4.8L9 -4.8Q13.8 -4.8 16.2 -7.7Q18.6 -10.6 18.6 -18" />
</g>
<g id="PathID_88" transform="matrix(0.467218, 0, 0, 0.390625, 163.85, 166.65)" opacity="1">
</g>
<g id="PathID_89" transform="matrix(0.467218, 0, 0, 0.390625, 175.8, 166.65)" opacity="1">
<linearGradient
id="LinearGradID_21" gradientUnits="userSpaceOnUse" gradientTransform="matrix(-3.2886e-009, 0.0752344, -0.0214063, -9.35697e-010, -38.5, -18.15)" spreadMethod ="pad" x1="-819.2" y1="0" x2="819.2" y2="0" >
<stop  offset="0" style="stop-color:#3C3C3C;stop-opacity:0" />
<stop  offset="1" style="stop-color:#000000;stop-opacity:1" />
</linearGradient>
<path style="fill:url(#LinearGradID_21) " d="M23.2 -10.6Q23.2 -6 20.3 -3.3Q17.4 -0.6 12.4 -0.6Q7.4 -0.6 4.6 -3.4Q1.8 -6.2 1.8 -10.4L1.8 -11.8L6.4 -11.8L6.4 -10.6Q6.4 -7.6 8.2 -6Q10 -4.4 12.4 -4.4Q15.6 -4.4 17.1 -6.1Q18.6 -7.8 18.6 -10.2Q18.6 -12.2 16.8 -13.9Q15 -15.6 11.6 -17Q6.8 -18.8 4.7 -21Q2.6 -23.2 2.6 -26.2Q2.6 -30.4 5.5 -33Q8.4 -35.6 12.4 -35.6Q17.6 -35.6 19.9 -32.5Q22.2 -29.4 22.2 -25.8L17.6 -25.8Q17.8 -28 16.4 -29.8Q15 -31.6 12.4 -31.6Q10 -31.6 8.6 -30.3Q7.2 -29 7.2 -26.8Q7.2 -25 8.3 -23.7Q9.4 -22.4 14 -20.6Q18.4 -18.8 20.8 -16.3Q23.2 -13.8 23.2 -10.6" />
</g>
<g id="PathID_90" transform="matrix(0.467218, 0, 0, 0.390625, 175.8, 166.65)" opacity="1">
</g>
</svg>
